<?xml version="1.0" standalone="no"?>
<!DOCTYPE svg PUBLIC "-//W3C//DTD SVG 20010904//EN"
 "http://www.w3.org/TR/2001/REC-SVG-20010904/DTD/svg10.dtd">
<svg version="1.0" xmlns="http://www.w3.org/2000/svg"
 width="1024.000000pt" height="1024.000000pt" viewBox="0 0 1024.000000 1024.000000"
 preserveAspectRatio="xMidYMid meet">
<metadata>
Created by potrace 1.14, written by Peter Selinger 2001-2017
</metadata>
<g transform="translate(0.000000,1024.000000) scale(0.100000,-0.100000)"
fill="#000000" stroke="none">
<path d="M4697 10066 c-61 -22 -111 -69 -134 -124 -29 -70 -22 -173 15 -214
17 -21 18 -20 -28 -23 -19 -2 -35 -4 -35 -5 0 -1 -18 -3 -40 -5 -48 -5 -109
-13 -150 -20 -16 -2 -46 -7 -65 -10 -19 -2 -51 -7 -70 -11 -19 -3 -47 -7 -62
-8 -16 0 -28 -3 -28 -6 0 -4 -10 -7 -22 -7 -24 -2 -63 -10 -63 -14 0 -1 -9 -3
-20 -4 -41 -5 -120 -22 -120 -25 0 -1 -13 -4 -29 -6 -16 -3 -38 -10 -48 -15
-10 -5 -23 -7 -28 -4 -6 3 -10 2 -10 -2 0 -5 -10 -10 -22 -10 -13 -1 -32 -6
-43 -11 -11 -6 -40 -15 -65 -22 -79 -21 -294 -109 -404 -165 -107 -55 -220
-127 -286 -181 -46 -38 -180 -176 -180 -185 0 -4 -6 -14 -13 -21 -45 -46 -112
-212 -120 -298 -3 -25 -6 -49 -7 -55 -1 -5 -1 -12 0 -15 1 -3 4 -34 6 -69 2
-35 9 -70 15 -78 6 -7 9 -13 6 -13 -13 0 37 -119 77 -184 104 -167 311 -334
559 -450 94 -44 122 -56 133 -55 4 0 10 -3 13 -8 7 -9 341 -120 373 -124 4 0
22 -5 40 -10 18 -6 44 -12 57 -15 12 -3 53 -12 90 -20 36 -9 75 -17 86 -19 11
-2 47 -8 80 -14 33 -6 74 -13 90 -16 17 -3 48 -8 70 -11 22 -3 72 -9 110 -15
39 -5 99 -12 135 -15 36 -3 85 -7 110 -9 25 -2 98 -6 163 -9 65 -3 123 -8 127
-11 5 -3 11 -1 15 5 4 6 11 8 16 4 20 -12 644 4 644 16 0 1 16 3 35 5 79 6
166 15 190 20 28 5 77 13 135 20 22 3 51 7 65 10 14 3 41 8 60 11 19 3 72 15
117 25 44 10 96 21 114 24 18 3 35 8 39 10 3 2 17 6 31 9 13 2 76 21 139 41
63 19 123 37 132 40 9 2 26 9 37 15 12 6 21 7 21 3 0 -4 5 -2 12 5 7 7 20 12
30 12 10 0 18 3 18 8 0 6 34 20 80 33 8 2 21 10 28 17 7 6 22 12 32 12 10 0
20 4 22 8 2 4 23 18 48 30 62 30 129 70 197 117 190 132 338 316 377 470 4 17
10 39 13 50 8 31 10 225 2 225 -4 0 -6 8 -4 18 1 9 -2 23 -8 30 -5 6 -7 12 -3
12 4 0 0 14 -9 30 -9 17 -13 30 -9 30 4 0 1 6 -5 13 -6 8 -8 17 -4 20 3 4 1 7
-5 7 -7 0 -12 5 -12 11 0 6 -9 24 -21 40 -11 16 -17 29 -12 29 4 0 3 4 -2 8
-6 4 -22 23 -35 42 -86 123 -280 274 -480 374 -82 41 -308 135 -340 141 -3 1
-45 14 -95 30 -49 16 -94 30 -100 31 -37 8 -65 15 -99 23 -22 5 -43 8 -47 5
-4 -2 -10 0 -14 6 -4 6 -11 8 -16 4 -5 -3 -26 -8 -45 -10 -64 -8 -133 -66
-165 -140 -34 -81 -8 -196 58 -254 42 -38 63 -47 165 -74 173 -45 346 -106
413 -143 17 -9 30 -16 30 -15 0 1 15 -3 33 -10 17 -7 32 -16 32 -21 0 -4 5 -5
10 -2 6 3 10 1 10 -4 0 -6 5 -11 10 -11 6 0 41 -19 78 -42 139 -88 228 -190
236 -272 6 -63 -45 -143 -148 -233 -20 -17 -36 -28 -36 -25 0 4 -4 2 -8 -3 -9
-13 -92 -65 -152 -95 -25 -12 -52 -26 -60 -31 -8 -5 -22 -12 -30 -15 -8 -3
-24 -10 -35 -15 -63 -28 -179 -68 -186 -64 -4 3 -9 1 -11 -4 -1 -6 -15 -12
-30 -15 -15 -2 -33 -8 -39 -12 -7 -4 -22 -8 -33 -10 -32 -5 -150 -38 -156 -44
-3 -3 -16 -6 -30 -6 -14 -1 -38 -5 -55 -8 -16 -4 -43 -10 -60 -13 -47 -8 -60
-11 -60 -13 0 -1 -9 -3 -20 -4 -93 -13 -123 -17 -145 -21 -71 -13 -121 -19
-245 -30 -322 -29 -806 -24 -1090 10 -27 4 -66 8 -85 10 -32 4 -136 20 -200
31 -22 4 -170 34 -240 49 -14 3 -34 9 -45 12 -11 4 -26 8 -32 10 -7 2 -19 4
-25 6 -7 2 -40 12 -73 22 -33 10 -62 19 -65 20 -131 36 -428 173 -452 209 -5
7 -8 7 -8 1 0 -6 -3 -6 -8 0 -4 6 -27 26 -52 45 -88 68 -148 151 -154 214 -9
89 96 211 270 315 28 17 57 31 63 31 6 0 11 5 11 10 0 6 4 10 9 10 5 0 42 15
83 34 40 18 105 44 143 57 39 13 73 29 77 34 4 6 8 7 8 3 0 -4 12 -3 28 3 15
6 88 26 162 46 140 36 152 39 209 48 18 3 50 9 70 14 20 5 43 9 51 9 8 0 40 5
70 11 30 6 79 13 108 16 29 2 63 7 76 11 24 6 44 -10 27 -20 -5 -3 -7 -35 -6
-70 4 -115 82 -208 185 -222 118 -16 143 -1 374 231 108 109 196 201 196 206
0 5 4 9 9 9 5 0 17 23 26 51 21 63 15 146 -13 190 -27 43 -395 413 -435 438
-45 28 -139 36 -190 17z"/>
<path d="M8360 7640 c0 -5 -9 -6 -20 -3 -10 3 -32 -4 -49 -16 -16 -12 -32 -21
-35 -21 -13 0 -47 -42 -102 -127 -180 -277 -248 -378 -256 -381 -4 -2 -8 -10
-8 -18 0 -8 -9 -23 -20 -34 -11 -11 -18 -20 -15 -20 8 0 -77 -124 -87 -128 -4
-2 -8 -8 -8 -12 0 -16 -141 -221 -148 -216 -6 4 -329 60 -411 72 -60 8 -124
16 -156 19 -16 2 -30 4 -30 5 0 1 -11 3 -25 5 -40 4 -142 16 -175 21 -45 6
-133 15 -190 19 -27 2 -50 4 -50 5 0 2 -18 4 -40 6 -22 1 -71 5 -110 8 -38 4
-92 8 -120 10 -232 20 -536 35 -801 40 -77 1 -145 5 -150 9 -6 3 -16 2 -24 -3
-8 -5 -22 -5 -32 1 -12 7 -18 6 -18 -1 0 -6 -5 -8 -12 -4 -13 8 -185 7 -199
-2 -5 -3 -9 0 -9 6 0 7 -6 8 -18 1 -11 -6 -24 -6 -35 0 -10 6 -17 6 -17 1 0
-5 -12 -7 -27 -5 -16 2 -32 4 -38 4 -5 0 -84 -3 -175 -5 -266 -7 -590 -24
-810 -41 -25 -2 -76 -6 -115 -9 -38 -3 -92 -8 -120 -11 -27 -4 -72 -8 -100
-10 -27 -2 -52 -4 -55 -5 -3 -2 -8 -2 -12 -1 -7 1 -62 -6 -199 -25 -20 -2 -59
-7 -85 -9 -27 -3 -60 -7 -74 -10 -14 -3 -45 -7 -70 -10 -25 -3 -56 -7 -70 -10
-13 -3 -42 -7 -65 -10 -51 -8 -85 -13 -160 -26 -67 -11 -90 -15 -320 -60 -88
-17 -164 -32 -170 -33 -5 -1 -19 -5 -30 -9 -11 -3 -32 -9 -47 -12 -16 -3 -40
-7 -55 -10 -16 -3 -36 -8 -45 -11 -9 -3 -25 -6 -35 -8 -10 -2 -38 -9 -63 -16
-25 -7 -53 -14 -62 -16 -26 -6 -47 -11 -108 -29 -30 -9 -62 -17 -70 -19 -8 -2
-42 -12 -75 -22 -33 -10 -63 -19 -67 -20 -5 -1 -9 -2 -10 -4 -2 -1 -10 -3 -18
-5 -28 -6 -285 -94 -350 -120 -36 -15 -69 -28 -75 -29 -5 -1 -28 -10 -50 -20
-22 -9 -41 -17 -42 -17 -3 0 -186 -84 -233 -107 -19 -9 -43 -23 -52 -31 -10
-8 -18 -11 -18 -7 0 4 -13 -2 -29 -13 -16 -12 -34 -21 -39 -21 -6 0 -12 -3
-14 -7 -2 -5 -19 -17 -38 -27 -56 -31 -230 -148 -269 -181 -53 -44 -211 -204
-248 -250 -18 -22 -33 -46 -33 -52 0 -7 -4 -13 -9 -13 -22 0 -114 -223 -129
-315 -14 -80 -5 -456 13 -620 3 -22 7 -65 11 -95 6 -56 13 -108 19 -140 2 -10
7 -40 11 -67 3 -26 9 -57 11 -68 3 -11 6 -29 8 -40 5 -29 12 -64 23 -112 5
-24 8 -43 5 -43 -3 0 0 -7 7 -15 7 -9 10 -18 7 -21 -3 -3 -1 -18 5 -33 5 -14
12 -35 14 -46 3 -17 11 -50 20 -87 1 -5 3 -10 4 -13 1 -3 3 -8 4 -12 2 -5 8
-28 16 -53 7 -25 14 -50 16 -57 3 -15 24 -83 31 -103 4 -8 7 -17 8 -20 1 -3 4
-12 8 -20 3 -8 19 -53 36 -100 34 -99 72 -193 107 -268 13 -29 24 -55 24 -58
0 -7 149 -305 177 -354 42 -73 85 -147 114 -190 16 -25 32 -52 36 -60 4 -8 28
-46 55 -85 26 -38 54 -78 60 -89 28 -41 180 -242 203 -268 14 -15 25 -30 25
-32 0 -3 10 -16 23 -29 12 -13 35 -39 51 -58 207 -247 531 -552 799 -750 67
-50 130 -96 139 -104 9 -7 27 -19 40 -26 13 -6 25 -15 28 -19 10 -13 129 -90
139 -90 6 0 11 -4 11 -10 0 -5 5 -10 11 -10 6 0 29 -12 52 -27 68 -45 81 -52
107 -65 14 -7 52 -29 85 -48 60 -36 351 -182 370 -186 6 -1 37 -14 70 -29 33
-15 74 -34 91 -41 48 -21 273 -105 292 -109 9 -2 51 -16 92 -30 41 -15 80 -28
85 -30 40 -9 72 -18 85 -22 14 -6 37 -11 67 -17 7 -1 16 -5 19 -9 4 -4 18 -7
31 -7 14 0 32 -4 42 -9 9 -5 32 -12 51 -14 19 -3 36 -6 38 -7 3 -3 76 -19 117
-26 6 -1 12 -3 15 -4 13 -5 141 -29 180 -34 14 -2 41 -6 60 -10 19 -4 51 -9
70 -11 19 -2 35 -4 35 -5 0 -1 18 -3 40 -5 22 -2 58 -6 80 -9 208 -25 298 -30
605 -30 258 -1 420 5 525 19 17 2 57 6 91 9 33 4 71 8 85 11 13 2 44 6 69 9
25 4 56 8 70 11 14 2 41 7 60 9 19 3 44 7 55 9 11 2 38 8 60 12 22 5 42 9 45
10 3 0 28 5 55 10 53 9 62 11 70 15 6 3 9 4 55 13 46 9 66 14 115 27 22 6 47
13 55 15 8 2 17 4 20 5 3 1 10 3 15 5 6 1 13 3 18 5 4 1 10 3 15 4 53 14 251
77 292 93 8 4 18 7 23 8 4 2 9 4 12 5 3 1 8 3 13 4 13 3 223 86 270 107 26 11
79 35 117 52 97 43 342 169 432 223 41 24 77 44 79 44 3 0 17 9 32 19 15 11
81 54 146 96 66 42 125 82 132 89 30 26 43 36 49 36 8 0 139 103 143 112 2 5
8 8 14 8 6 0 27 15 47 33 21 17 49 41 63 52 151 118 481 440 613 600 17 20 44
52 60 71 17 19 38 44 47 57 10 12 41 51 69 87 28 36 70 92 92 125 22 33 43 62
46 65 14 12 71 99 71 108 0 6 3 12 8 14 8 3 52 64 52 72 0 3 16 30 35 60 19
30 35 60 35 66 0 5 4 10 8 10 4 0 13 12 20 28 7 15 24 47 39 72 32 56 143 278
173 345 12 28 29 66 38 85 9 19 16 37 17 40 0 5 60 159 75 195 15 34 71 199
76 221 2 12 10 40 18 63 9 22 13 41 9 41 -3 0 0 7 7 15 7 8 9 15 5 15 -4 0 -2
7 5 15 7 8 10 15 7 15 -3 0 0 20 7 45 8 25 12 45 11 45 -2 0 2 15 10 34 8 18
11 36 8 39 -3 4 0 14 8 23 8 10 13 20 11 23 -3 5 7 81 14 106 6 22 14 61 19
95 3 20 7 47 10 60 3 13 7 42 10 65 4 22 8 51 10 65 6 36 16 130 30 275 3 28
7 145 10 260 4 195 2 216 -19 300 -23 89 -63 187 -78 193 -4 2 -8 10 -8 18 0
8 -5 20 -10 27 -6 7 -23 31 -38 53 -38 59 -98 128 -161 188 -72 69 -70 67
-121 106 -25 19 -47 37 -50 40 -3 4 -41 29 -85 58 -44 28 -85 56 -92 62 -7 5
-14 10 -16 10 -3 0 -49 25 -103 56 -54 30 -103 56 -109 57 -5 1 -12 4 -15 7
-5 5 -80 42 -90 45 -3 1 -23 9 -45 19 -22 9 -41 17 -43 16 -1 0 -17 7 -35 17
-17 9 -37 18 -42 19 -6 1 -31 10 -55 21 -25 11 -92 37 -150 57 -58 21 -114 41
-125 46 -19 8 -206 66 -290 90 -80 22 -190 52 -205 55 -8 2 -35 8 -60 15 -25
7 -51 13 -57 13 -7 0 -13 6 -13 12 0 11 136 226 159 252 6 7 11 14 11 17 0 2
40 64 88 138 49 73 115 174 147 223 31 50 62 93 67 96 5 3 9 10 9 15 0 5 5 27
11 49 13 48 16 95 6 102 -5 2 -8 13 -8 24 0 50 -90 140 -155 155 -49 10 -95
13 -95 4z m-2680 -1234 c216 -10 325 -16 390 -20 36 -3 108 -8 160 -11 52 -3
113 -8 135 -11 22 -2 67 -7 100 -9 33 -3 76 -7 95 -9 64 -7 155 -17 195 -20
22 -2 56 -7 75 -10 19 -3 53 -7 75 -10 109 -13 152 -18 175 -23 14 -3 41 -6
60 -8 19 -2 46 -6 60 -10 14 -3 48 -8 75 -11 28 -3 54 -9 58 -13 8 -8 -23 -71
-35 -71 -5 0 -8 -4 -8 -9 0 -9 -175 -280 -197 -306 -5 -5 -20 -28 -33 -50 -13
-22 -28 -41 -32 -43 -4 -2 -8 -8 -8 -13 0 -8 -61 -106 -83 -134 -20 -25 -77
-118 -77 -125 0 -5 -3 -10 -7 -12 -5 -1 -33 -41 -63 -88 -30 -47 -58 -86 -62
-88 -5 -2 -8 -7 -8 -11 0 -8 -160 -257 -179 -278 -6 -7 -11 -15 -11 -17 0 -3
-20 -35 -45 -72 -25 -36 -45 -69 -45 -74 0 -4 -3 -10 -7 -12 -5 -1 -21 -22
-36 -45 -27 -39 -31 -41 -70 -37 -23 2 -78 6 -122 9 -44 3 -111 7 -150 10
-274 19 -510 27 -900 28 -176 1 -348 0 -383 -3 -35 -3 -68 -2 -75 2 -6 3 -15
4 -21 1 -5 -3 -50 -7 -100 -9 -265 -8 -632 -32 -901 -60 -22 -2 -67 -6 -100
-8 -33 -3 -60 -6 -60 -6 0 -2 -14 -4 -106 -14 -31 -3 -72 -8 -90 -11 -79 -12
-117 -16 -159 -20 -25 -2 -45 -4 -45 -5 0 -4 -131 -22 -167 -24 -10 0 -18 -4
-18 -9 0 -4 -4 -6 -9 -3 -5 3 -33 1 -62 -4 -59 -11 -84 -16 -144 -25 -22 -3
-53 -8 -70 -12 -16 -3 -39 -7 -50 -8 -11 -2 -20 -4 -20 -5 0 -2 -20 -6 -65
-13 -19 -4 -69 -13 -110 -22 -41 -9 -86 -19 -100 -21 -14 -3 -43 -10 -65 -15
-22 -5 -51 -12 -64 -15 -13 -3 -85 -21 -160 -40 -75 -20 -145 -37 -156 -40
-11 -2 -31 -8 -45 -13 -33 -12 -136 -42 -152 -45 -7 -1 -17 -4 -23 -7 -8 -5
-64 -21 -72 -21 -1 0 -24 -8 -51 -17 -52 -19 -63 -17 -192 41 -14 6 -31 13
-39 14 -8 1 -18 9 -22 16 -5 7 -9 9 -9 5 0 -5 -12 -1 -27 7 -16 8 -50 24 -78
37 -73 32 -315 171 -315 181 0 4 -5 8 -11 8 -17 0 -129 90 -197 158 -113 114
-156 199 -156 307 0 64 4 82 37 149 21 42 42 76 48 76 5 0 9 5 9 11 0 14 115
125 186 179 33 25 60 48 62 53 2 4 10 7 17 7 8 0 20 6 27 13 7 7 40 28 73 47
33 19 61 37 63 42 2 4 10 8 18 8 8 0 32 11 54 25 22 14 41 25 44 25 2 0 50 22
107 49 57 26 149 65 204 86 55 21 115 44 133 52 18 8 42 15 52 16 11 1 20 4
20 7 0 4 7 7 15 7 8 0 31 7 52 15 21 9 81 28 133 43 52 15 106 31 120 36 35
12 309 83 370 95 14 3 50 11 80 19 30 7 71 16 90 19 19 3 45 8 58 11 12 3 32
7 45 10 23 5 158 31 212 40 17 2 41 7 55 10 13 2 42 7 65 10 22 4 54 9 70 12
17 3 41 7 55 8 14 2 25 4 25 5 0 1 16 3 35 5 36 3 105 13 150 21 14 3 45 7 70
9 25 2 61 7 80 9 19 3 60 8 90 11 31 3 64 7 75 9 11 2 58 7 105 11 47 4 99 8
115 11 17 2 66 6 110 9 44 4 96 8 115 10 121 12 340 23 605 31 110 3 201 7
202 8 5 4 755 -3 863 -8z m2240 -277 c19 -6 49 -13 65 -16 17 -2 55 -11 85
-20 30 -8 64 -16 75 -18 11 -3 52 -14 90 -25 39 -12 77 -23 85 -25 8 -2 53
-16 100 -30 47 -15 90 -28 95 -29 6 -2 17 -6 25 -9 8 -3 44 -15 80 -27 36 -11
73 -25 82 -30 10 -6 27 -10 37 -10 11 0 22 -4 25 -9 3 -5 18 -12 33 -16 15 -3
46 -15 70 -26 23 -10 44 -19 47 -19 3 0 40 -16 83 -37 43 -20 80 -37 83 -37
12 -3 174 -89 217 -116 27 -16 58 -34 71 -40 12 -5 22 -15 22 -21 0 -7 3 -9 6
-6 4 4 24 -7 44 -23 21 -17 41 -30 44 -30 3 0 14 -8 24 -17 11 -10 44 -40 76
-68 53 -47 149 -166 146 -181 -1 -4 2 -10 7 -13 21 -15 39 -90 38 -157 -2 -61
-8 -82 -40 -143 -45 -86 -194 -244 -266 -281 -13 -7 -26 -16 -29 -20 -3 -5
-43 -31 -90 -59 -47 -29 -92 -56 -100 -61 -32 -20 -292 -146 -320 -155 -7 -2
-57 -22 -100 -39 -56 -23 -64 -24 -92 -9 -16 7 -28 11 -28 7 0 -4 -7 0 -17 7
-9 8 -18 13 -20 11 -2 -1 -36 7 -76 19 -96 28 -91 26 -99 28 -4 1 -26 8 -48
16 -33 12 -395 105 -465 120 -11 2 -65 13 -120 25 -116 25 -119 25 -165 34
-19 3 -46 8 -60 11 -14 3 -38 8 -55 10 -40 7 -145 26 -170 31 -12 2 -39 6 -60
8 -22 3 -51 7 -65 10 -36 7 -99 17 -140 22 -46 5 -84 10 -145 19 -27 4 -61 8
-75 10 -14 2 -28 3 -33 4 -6 1 28 61 56 96 4 6 25 37 46 70 175 268 302 462
311 472 5 7 10 17 10 23 0 5 5 10 10 10 6 0 10 4 10 9 0 5 41 71 92 148 51 76
91 141 90 146 -1 4 2 7 6 7 4 0 21 22 37 50 17 27 34 50 38 50 5 0 5 5 2 10
-3 6 -2 10 4 10 5 0 12 8 16 19 3 10 13 28 23 39 9 11 55 79 101 151 91 143
93 144 171 120z m-2865 -1788 c4 5 14 5 26 -1 10 -6 19 -7 19 -2 0 5 18 6 40
2 22 -4 40 -3 40 2 0 5 9 4 19 -2 14 -7 22 -7 26 0 4 6 10 8 15 5 8 -5 92 -8
542 -18 60 -1 108 -4 108 -7 0 -3 37 -5 83 -5 105 0 109 -1 94 -28 -7 -12 -17
-27 -24 -34 -6 -7 -15 -22 -18 -33 -3 -11 -10 -20 -14 -20 -5 0 -14 -13 -21
-30 -7 -16 -16 -30 -21 -30 -5 0 -9 -6 -9 -12 0 -7 -9 -24 -20 -38 -11 -14
-54 -77 -95 -140 -41 -63 -81 -124 -89 -135 -9 -10 -16 -25 -16 -32 0 -15 2
-15 -73 -18 -31 -1 -60 -5 -63 -8 -4 -3 -15 -2 -25 4 -11 5 -19 6 -19 2 0 -10
-795 -11 -805 -1 -4 3 -20 2 -36 -2 -17 -5 -31 -5 -35 1 -4 6 -10 6 -18 0 -7
-6 -15 -8 -18 -5 -3 3 -61 7 -129 9 -154 5 -392 19 -539 31 -25 2 -76 6 -115
9 -38 3 -88 7 -110 10 -22 2 -73 7 -113 10 -41 4 -84 8 -95 11 -12 2 -44 6
-72 9 -70 8 -203 25 -245 31 -19 3 -51 7 -70 9 -19 3 -65 9 -102 15 -37 7 -78
13 -90 15 -38 5 -210 35 -258 45 -25 5 -58 11 -75 14 -16 2 -37 6 -45 9 -17 7
-84 18 -117 20 -13 1 -23 6 -23 10 0 4 -6 7 -12 6 -11 -2 -38 3 -100 17 -5 1
-14 2 -20 3 -15 3 22 18 60 26 31 7 55 13 62 15 3 1 10 3 15 4 6 1 33 6 60 11
60 11 64 12 68 15 1 1 13 3 27 5 14 1 50 7 80 13 54 11 306 55 385 66 22 3 51
8 65 11 14 2 48 7 75 10 28 3 64 8 80 11 17 3 55 7 85 9 30 2 55 5 55 5 0 3
33 8 95 14 36 4 85 9 110 12 25 3 70 7 100 9 30 2 55 5 55 6 0 0 16 2 35 4 19
1 76 6 125 10 50 4 119 9 155 11 145 7 198 12 208 18 6 3 13 2 17 -4 4 -6 12
-7 18 -3 13 8 54 9 396 17 128 3 235 7 238 9 2 3 18 1 34 -3 17 -5 31 -5 34 1z
m1650 -86 c58 -6 103 -11 155 -19 14 -3 52 -7 85 -11 32 -4 68 -9 80 -11 11
-2 34 -5 52 -6 18 -1 30 -5 28 -9 -3 -4 3 -5 12 -3 16 4 147 -15 323 -47 30
-5 69 -12 87 -15 18 -2 61 -11 95 -19 35 -8 81 -17 102 -21 21 -3 48 -8 60
-11 11 -2 30 -6 41 -8 58 -11 124 -33 105 -35 -41 -6 -57 -9 -75 -13 -87 -22
-123 -30 -140 -31 -11 -2 -45 -8 -75 -14 -132 -29 -316 -61 -500 -87 -58 -8
-121 -18 -140 -20 -116 -18 -182 -26 -240 -30 -36 -2 -65 -5 -65 -6 0 -2 -34
-7 -105 -14 -36 -3 -85 -8 -110 -10 -129 -13 -170 -14 -170 -7 0 5 14 28 30
50 17 23 30 46 30 52 0 5 5 10 12 10 6 0 9 3 5 6 -3 3 1 13 9 22 7 10 47 69
88 132 41 63 82 124 90 135 9 10 16 23 16 27 0 9 42 28 50 23 3 -2 33 -6 65
-10z m-6054 -83 c113 -71 269 -154 269 -144 0 4 4 2 8 -3 15 -23 516 -229 579
-239 7 -1 16 -5 19 -9 4 -4 17 -7 29 -7 12 0 25 -3 29 -7 3 -4 12 -8 19 -10 7
-1 50 -14 97 -28 47 -15 94 -28 105 -30 11 -2 21 -4 23 -5 1 -2 5 -3 10 -5 4
-1 19 -5 33 -9 14 -4 32 -9 40 -10 8 -2 21 -6 29 -9 8 -3 53 -15 100 -26 80
-20 99 -25 159 -37 14 -3 28 -7 32 -10 4 -2 27 -7 51 -10 24 -4 50 -10 58 -14
8 -4 38 -10 66 -14 28 -3 75 -13 105 -20 30 -8 72 -17 94 -20 39 -6 107 -18
175 -31 19 -4 44 -8 55 -10 30 -3 116 -16 145 -22 28 -5 76 -12 130 -17 19 -2
35 -5 35 -6 0 -1 16 -3 35 -6 19 -2 53 -6 75 -9 22 -4 58 -8 80 -11 22 -2 56
-7 75 -9 19 -3 60 -7 90 -10 30 -3 75 -7 100 -11 25 -3 70 -7 100 -9 30 -2 78
-6 105 -9 60 -6 175 -16 270 -21 39 -3 99 -7 135 -9 238 -16 426 -20 890 -21
520 0 725 6 1070 30 52 4 122 8 155 10 33 2 60 5 60 5 0 1 18 3 40 5 118 9
205 18 315 31 30 3 71 8 90 9 33 3 63 7 150 19 19 3 58 8 85 12 28 3 64 8 80
10 17 3 44 6 60 8 17 2 46 7 65 11 19 3 49 8 65 10 74 9 121 18 136 26 9 4 19
6 21 3 3 -2 27 0 54 6 27 7 63 13 79 16 17 2 55 9 85 15 30 7 62 13 70 14 8 1
29 5 45 8 17 4 40 9 53 12 13 2 31 6 40 9 9 3 31 8 47 11 125 22 699 179 745
204 9 5 31 12 50 16 19 4 41 12 49 19 8 6 16 10 17 9 5 -3 32 6 72 23 18 8 37
14 42 14 18 0 365 152 368 161 2 5 10 9 18 9 23 0 293 151 337 188 29 25 31 6
8 -85 -12 -49 -23 -97 -25 -108 -20 -98 -130 -429 -189 -565 -6 -14 -11 -27
-12 -30 -2 -6 -16 -40 -43 -100 -42 -97 -66 -145 -76 -152 -6 -4 -8 -8 -4 -8
7 0 -96 -194 -154 -289 -22 -36 -46 -75 -52 -86 -25 -45 -183 -274 -228 -330
-4 -5 -40 -51 -80 -101 -185 -231 -440 -489 -664 -669 -20 -16 -42 -34 -48
-40 -6 -5 -38 -30 -71 -55 -33 -24 -66 -50 -73 -57 -7 -7 -17 -13 -20 -13 -4
0 -20 -11 -35 -25 -15 -14 -27 -23 -27 -20 0 3 -24 -12 -53 -33 -72 -53 -196
-132 -206 -132 -5 0 -11 -4 -13 -9 -1 -5 -10 -11 -18 -13 -8 -2 -17 -5 -20 -9
-25 -27 -520 -280 -575 -293 -11 -3 -61 -22 -90 -35 -11 -5 -47 -19 -80 -31
-33 -12 -69 -26 -80 -30 -36 -15 -100 -34 -107 -32 -5 1 -8 -3 -8 -9 0 -5 -5
-7 -10 -4 -6 4 -17 1 -25 -5 -8 -7 -15 -10 -15 -7 0 3 -26 -3 -57 -14 -50 -17
-255 -73 -310 -84 -10 -2 -49 -10 -88 -19 -66 -14 -162 -32 -223 -41 -15 -2
-45 -7 -67 -10 -22 -3 -53 -7 -70 -9 -16 -2 -30 -4 -30 -5 0 -3 -84 -11 -160
-16 -33 -2 -60 -4 -60 -5 0 -12 -552 -17 -695 -6 -142 10 -183 14 -225 20 -22
2 -67 8 -100 11 -33 4 -71 9 -85 11 -14 3 -38 7 -55 10 -120 20 -180 31 -203
38 -9 3 -33 8 -52 11 -19 3 -53 10 -75 16 -22 5 -51 12 -65 15 -14 2 -34 8
-45 11 -11 4 -24 8 -30 9 -5 1 -57 17 -115 34 -58 17 -112 32 -120 33 -8 1
-17 4 -20 7 -3 4 -25 12 -49 19 -25 7 -56 18 -70 24 -14 5 -30 11 -36 12 -16
4 -145 55 -192 76 -24 10 -45 19 -47 19 -7 0 -125 55 -231 107 -147 73 -274
142 -362 199 -29 18 -57 34 -62 34 -4 0 -16 9 -26 20 -10 11 -22 20 -27 20
-10 0 -123 75 -146 97 -7 7 -16 13 -20 13 -4 0 -20 11 -36 25 -16 14 -32 25
-35 25 -3 0 -20 13 -38 28 -17 15 -44 36 -59 47 -33 23 -215 176 -259 217 -16
15 -34 28 -38 28 -5 0 -5 5 -2 10 3 5 1 10 -5 10 -20 0 -377 370 -389 402 -1
5 -13 19 -25 32 -44 46 -76 86 -76 96 0 5 -4 10 -10 10 -5 0 -10 7 -10 15 0 8
-4 15 -8 15 -8 0 -122 152 -131 174 -2 5 -20 30 -39 55 -19 25 -40 57 -46 71
-11 25 -20 38 -43 65 -7 7 -13 16 -13 19 0 3 -13 27 -29 54 -86 146 -257 482
-245 482 3 0 -1 12 -9 28 -8 15 -19 38 -24 52 -6 14 -15 36 -21 50 -33 76
-124 345 -137 404 -1 6 -4 18 -7 26 -9 25 -30 103 -35 130 -2 14 -11 50 -19
81 -14 58 -17 79 -10 79 2 0 46 -26 97 -58z"/>
</g>
</svg>
